<mxfile host="app.diagrams.net" agent="Mozilla/5.0 (Windows NT 10.0; Win64; x64) AppleWebKit/537.36 (KHTML, like Gecko) Chrome/128.0.0.0 YaBrowser/24.10.0.0 Safari/537.36" version="24.8.3">
  <diagram id="C5RBs43oDa-KdzZeNtuy" name="Page-1">
    <mxGraphModel dx="1076" dy="597" grid="0" gridSize="10" guides="1" tooltips="1" connect="1" arrows="1" fold="1" page="0" pageScale="1" pageWidth="827" pageHeight="1169" math="0" shadow="0">
      <root>
        <mxCell id="WIyWlLk6GJQsqaUBKTNV-0" />
        <mxCell id="WIyWlLk6GJQsqaUBKTNV-1" parent="WIyWlLk6GJQsqaUBKTNV-0" />
        <mxCell id="LJI07mUxKh7Q_xS4_0Vs-19" style="edgeStyle=orthogonalEdgeStyle;rounded=0;orthogonalLoop=1;jettySize=auto;html=1;labelBackgroundColor=none;fontColor=default;" parent="WIyWlLk6GJQsqaUBKTNV-1" source="LJI07mUxKh7Q_xS4_0Vs-1" target="LJI07mUxKh7Q_xS4_0Vs-18" edge="1">
          <mxGeometry relative="1" as="geometry" />
        </mxCell>
        <mxCell id="LJI07mUxKh7Q_xS4_0Vs-1" value="Ввод what_op" style="shape=parallelogram;perimeter=parallelogramPerimeter;whiteSpace=wrap;html=1;fixedSize=1;rounded=0;labelBackgroundColor=none;" parent="WIyWlLk6GJQsqaUBKTNV-1" vertex="1">
          <mxGeometry x="70" y="170" width="120" height="40" as="geometry" />
        </mxCell>
        <mxCell id="LJI07mUxKh7Q_xS4_0Vs-23" style="edgeStyle=orthogonalEdgeStyle;rounded=0;orthogonalLoop=1;jettySize=auto;html=1;labelBackgroundColor=none;fontColor=default;" parent="WIyWlLk6GJQsqaUBKTNV-1" source="LJI07mUxKh7Q_xS4_0Vs-18" target="LJI07mUxKh7Q_xS4_0Vs-20" edge="1">
          <mxGeometry relative="1" as="geometry" />
        </mxCell>
        <mxCell id="LJI07mUxKh7Q_xS4_0Vs-18" value="switch (what_op)" style="rounded=0;whiteSpace=wrap;html=1;labelBackgroundColor=none;" parent="WIyWlLk6GJQsqaUBKTNV-1" vertex="1">
          <mxGeometry x="70" y="230" width="120" height="40" as="geometry" />
        </mxCell>
        <mxCell id="LJI07mUxKh7Q_xS4_0Vs-24" style="edgeStyle=orthogonalEdgeStyle;rounded=0;orthogonalLoop=1;jettySize=auto;html=1;labelBackgroundColor=none;fontColor=default;" parent="WIyWlLk6GJQsqaUBKTNV-1" source="LJI07mUxKh7Q_xS4_0Vs-20" target="LJI07mUxKh7Q_xS4_0Vs-21" edge="1">
          <mxGeometry relative="1" as="geometry" />
        </mxCell>
        <mxCell id="5GCPhKmFYs46bc2yyRkM-18" value="нет" style="edgeLabel;html=1;align=center;verticalAlign=middle;resizable=0;points=[];" vertex="1" connectable="0" parent="LJI07mUxKh7Q_xS4_0Vs-24">
          <mxGeometry x="0.6727" relative="1" as="geometry">
            <mxPoint as="offset" />
          </mxGeometry>
        </mxCell>
        <mxCell id="LJI07mUxKh7Q_xS4_0Vs-143" style="edgeStyle=orthogonalEdgeStyle;rounded=0;orthogonalLoop=1;jettySize=auto;html=1;entryX=0;entryY=0.5;entryDx=0;entryDy=0;labelBackgroundColor=none;fontColor=default;" parent="WIyWlLk6GJQsqaUBKTNV-1" source="LJI07mUxKh7Q_xS4_0Vs-20" target="LJI07mUxKh7Q_xS4_0Vs-142" edge="1">
          <mxGeometry relative="1" as="geometry" />
        </mxCell>
        <mxCell id="5GCPhKmFYs46bc2yyRkM-17" value="да" style="edgeLabel;html=1;align=center;verticalAlign=middle;resizable=0;points=[];" vertex="1" connectable="0" parent="LJI07mUxKh7Q_xS4_0Vs-143">
          <mxGeometry x="0.1651" y="-5" relative="1" as="geometry">
            <mxPoint as="offset" />
          </mxGeometry>
        </mxCell>
        <mxCell id="LJI07mUxKh7Q_xS4_0Vs-20" value="1" style="rhombus;whiteSpace=wrap;html=1;rounded=0;labelBackgroundColor=none;" parent="WIyWlLk6GJQsqaUBKTNV-1" vertex="1">
          <mxGeometry x="105" y="290" width="50" height="50" as="geometry" />
        </mxCell>
        <mxCell id="LJI07mUxKh7Q_xS4_0Vs-26" style="edgeStyle=orthogonalEdgeStyle;rounded=0;orthogonalLoop=1;jettySize=auto;html=1;labelBackgroundColor=none;fontColor=default;" parent="WIyWlLk6GJQsqaUBKTNV-1" source="LJI07mUxKh7Q_xS4_0Vs-21" target="LJI07mUxKh7Q_xS4_0Vs-25" edge="1">
          <mxGeometry relative="1" as="geometry" />
        </mxCell>
        <mxCell id="5GCPhKmFYs46bc2yyRkM-19" value="нет" style="edgeLabel;html=1;align=center;verticalAlign=middle;resizable=0;points=[];" vertex="1" connectable="0" parent="LJI07mUxKh7Q_xS4_0Vs-26">
          <mxGeometry x="0.6206" y="-1" relative="1" as="geometry">
            <mxPoint as="offset" />
          </mxGeometry>
        </mxCell>
        <mxCell id="LJI07mUxKh7Q_xS4_0Vs-146" style="edgeStyle=orthogonalEdgeStyle;rounded=0;orthogonalLoop=1;jettySize=auto;html=1;entryX=0;entryY=0.5;entryDx=0;entryDy=0;labelBackgroundColor=none;fontColor=default;" parent="WIyWlLk6GJQsqaUBKTNV-1" source="LJI07mUxKh7Q_xS4_0Vs-21" target="LJI07mUxKh7Q_xS4_0Vs-144" edge="1">
          <mxGeometry relative="1" as="geometry" />
        </mxCell>
        <mxCell id="5GCPhKmFYs46bc2yyRkM-20" value="да" style="edgeLabel;html=1;align=center;verticalAlign=middle;resizable=0;points=[];" vertex="1" connectable="0" parent="LJI07mUxKh7Q_xS4_0Vs-146">
          <mxGeometry x="0.6246" y="-1" relative="1" as="geometry">
            <mxPoint as="offset" />
          </mxGeometry>
        </mxCell>
        <mxCell id="LJI07mUxKh7Q_xS4_0Vs-21" value="2" style="rhombus;whiteSpace=wrap;html=1;rounded=0;labelBackgroundColor=none;" parent="WIyWlLk6GJQsqaUBKTNV-1" vertex="1">
          <mxGeometry x="105" y="360" width="50" height="50" as="geometry" />
        </mxCell>
        <mxCell id="LJI07mUxKh7Q_xS4_0Vs-27" style="edgeStyle=orthogonalEdgeStyle;rounded=0;orthogonalLoop=1;jettySize=auto;html=1;entryX=0;entryY=0.5;entryDx=0;entryDy=0;labelBackgroundColor=none;fontColor=default;" parent="WIyWlLk6GJQsqaUBKTNV-1" source="LJI07mUxKh7Q_xS4_0Vs-25" target="LJI07mUxKh7Q_xS4_0Vs-125" edge="1">
          <mxGeometry relative="1" as="geometry">
            <Array as="points">
              <mxPoint x="50" y="455" />
              <mxPoint x="50" y="125" />
            </Array>
          </mxGeometry>
        </mxCell>
        <mxCell id="LJI07mUxKh7Q_xS4_0Vs-25" value="defoult" style="rhombus;whiteSpace=wrap;html=1;rounded=0;labelBackgroundColor=none;" parent="WIyWlLk6GJQsqaUBKTNV-1" vertex="1">
          <mxGeometry x="105" y="430" width="50" height="50" as="geometry" />
        </mxCell>
        <mxCell id="5GCPhKmFYs46bc2yyRkM-5" style="edgeStyle=orthogonalEdgeStyle;rounded=0;orthogonalLoop=1;jettySize=auto;html=1;entryX=0.5;entryY=0;entryDx=0;entryDy=0;" edge="1" parent="WIyWlLk6GJQsqaUBKTNV-1" source="LJI07mUxKh7Q_xS4_0Vs-30" target="5GCPhKmFYs46bc2yyRkM-4">
          <mxGeometry relative="1" as="geometry" />
        </mxCell>
        <mxCell id="LJI07mUxKh7Q_xS4_0Vs-30" value="Ввод na" style="shape=parallelogram;perimeter=parallelogramPerimeter;whiteSpace=wrap;html=1;fixedSize=1;rounded=0;labelBackgroundColor=none;" parent="WIyWlLk6GJQsqaUBKTNV-1" vertex="1">
          <mxGeometry x="330" y="100" width="120" height="40" as="geometry" />
        </mxCell>
        <mxCell id="LJI07mUxKh7Q_xS4_0Vs-56" style="edgeStyle=orthogonalEdgeStyle;rounded=0;orthogonalLoop=1;jettySize=auto;html=1;exitX=0.5;exitY=1;exitDx=0;exitDy=0;entryX=0.5;entryY=0;entryDx=0;entryDy=0;labelBackgroundColor=none;fontColor=default;strokeColor=default;" parent="WIyWlLk6GJQsqaUBKTNV-1" source="LJI07mUxKh7Q_xS4_0Vs-48" target="LJI07mUxKh7Q_xS4_0Vs-49" edge="1">
          <mxGeometry relative="1" as="geometry" />
        </mxCell>
        <mxCell id="LJI07mUxKh7Q_xS4_0Vs-48" value="ввод x, y" style="shape=parallelogram;perimeter=parallelogramPerimeter;whiteSpace=wrap;html=1;fixedSize=1;rounded=0;labelBackgroundColor=none;strokeColor=default;" parent="WIyWlLk6GJQsqaUBKTNV-1" vertex="1">
          <mxGeometry x="600" y="530" width="120" height="40" as="geometry" />
        </mxCell>
        <mxCell id="LJI07mUxKh7Q_xS4_0Vs-57" style="edgeStyle=orthogonalEdgeStyle;rounded=0;orthogonalLoop=1;jettySize=auto;html=1;exitX=0.5;exitY=1;exitDx=0;exitDy=0;labelBackgroundColor=none;fontColor=default;strokeColor=default;" parent="WIyWlLk6GJQsqaUBKTNV-1" source="LJI07mUxKh7Q_xS4_0Vs-49" target="LJI07mUxKh7Q_xS4_0Vs-51" edge="1">
          <mxGeometry relative="1" as="geometry" />
        </mxCell>
        <mxCell id="LJI07mUxKh7Q_xS4_0Vs-49" value="добавляю gra[i] пару x, y" style="rounded=0;whiteSpace=wrap;html=1;labelBackgroundColor=none;strokeColor=default;" parent="WIyWlLk6GJQsqaUBKTNV-1" vertex="1">
          <mxGeometry x="580" y="590" width="160" height="40" as="geometry" />
        </mxCell>
        <mxCell id="LJI07mUxKh7Q_xS4_0Vs-94" style="edgeStyle=orthogonalEdgeStyle;rounded=0;orthogonalLoop=1;jettySize=auto;html=1;entryX=0;entryY=0.5;entryDx=0;entryDy=0;labelBackgroundColor=none;fontColor=default;strokeColor=default;" parent="WIyWlLk6GJQsqaUBKTNV-1" source="LJI07mUxKh7Q_xS4_0Vs-51" target="LJI07mUxKh7Q_xS4_0Vs-91" edge="1">
          <mxGeometry relative="1" as="geometry">
            <Array as="points">
              <mxPoint x="560" y="670" />
              <mxPoint x="560" y="490" />
            </Array>
          </mxGeometry>
        </mxCell>
        <mxCell id="LJI07mUxKh7Q_xS4_0Vs-51" value="i++" style="rounded=0;whiteSpace=wrap;html=1;labelBackgroundColor=none;strokeColor=default;" parent="WIyWlLk6GJQsqaUBKTNV-1" vertex="1">
          <mxGeometry x="600" y="650" width="120" height="40" as="geometry" />
        </mxCell>
        <mxCell id="LJI07mUxKh7Q_xS4_0Vs-93" style="edgeStyle=orthogonalEdgeStyle;rounded=0;orthogonalLoop=1;jettySize=auto;html=1;entryX=0.5;entryY=0;entryDx=0;entryDy=0;labelBackgroundColor=none;fontColor=default;strokeColor=default;" parent="WIyWlLk6GJQsqaUBKTNV-1" source="LJI07mUxKh7Q_xS4_0Vs-91" target="LJI07mUxKh7Q_xS4_0Vs-48" edge="1">
          <mxGeometry relative="1" as="geometry" />
        </mxCell>
        <mxCell id="5GCPhKmFYs46bc2yyRkM-29" value="вход" style="edgeLabel;html=1;align=center;verticalAlign=middle;resizable=0;points=[];" vertex="1" connectable="0" parent="LJI07mUxKh7Q_xS4_0Vs-93">
          <mxGeometry x="-0.7915" relative="1" as="geometry">
            <mxPoint as="offset" />
          </mxGeometry>
        </mxCell>
        <mxCell id="5GCPhKmFYs46bc2yyRkM-3" style="edgeStyle=orthogonalEdgeStyle;rounded=0;orthogonalLoop=1;jettySize=auto;html=1;entryX=1;entryY=0.5;entryDx=0;entryDy=0;strokeColor=default;" edge="1" parent="WIyWlLk6GJQsqaUBKTNV-1" source="LJI07mUxKh7Q_xS4_0Vs-91" target="5GCPhKmFYs46bc2yyRkM-2">
          <mxGeometry relative="1" as="geometry">
            <Array as="points">
              <mxPoint x="760" y="490" />
              <mxPoint x="760" y="730" />
            </Array>
          </mxGeometry>
        </mxCell>
        <mxCell id="5GCPhKmFYs46bc2yyRkM-15" value="выход" style="edgeLabel;html=1;align=center;verticalAlign=middle;resizable=0;points=[];" vertex="1" connectable="0" parent="5GCPhKmFYs46bc2yyRkM-3">
          <mxGeometry x="-0.285" y="1" relative="1" as="geometry">
            <mxPoint as="offset" />
          </mxGeometry>
        </mxCell>
        <mxCell id="LJI07mUxKh7Q_xS4_0Vs-91" value="i=0; n-1; 1" style="shape=hexagon;perimeter=hexagonPerimeter2;whiteSpace=wrap;html=1;fixedSize=1;rounded=0;labelBackgroundColor=none;strokeColor=default;" parent="WIyWlLk6GJQsqaUBKTNV-1" vertex="1">
          <mxGeometry x="600" y="470" width="120" height="40" as="geometry" />
        </mxCell>
        <mxCell id="LJI07mUxKh7Q_xS4_0Vs-101" style="edgeStyle=orthogonalEdgeStyle;rounded=0;orthogonalLoop=1;jettySize=auto;html=1;entryX=0.5;entryY=0;entryDx=0;entryDy=0;labelBackgroundColor=none;fontColor=default;" parent="WIyWlLk6GJQsqaUBKTNV-1" source="LJI07mUxKh7Q_xS4_0Vs-97" target="LJI07mUxKh7Q_xS4_0Vs-100" edge="1">
          <mxGeometry relative="1" as="geometry" />
        </mxCell>
        <mxCell id="5GCPhKmFYs46bc2yyRkM-22" value="вход" style="edgeLabel;html=1;align=center;verticalAlign=middle;resizable=0;points=[];" vertex="1" connectable="0" parent="LJI07mUxKh7Q_xS4_0Vs-101">
          <mxGeometry x="0.4883" y="-2" relative="1" as="geometry">
            <mxPoint as="offset" />
          </mxGeometry>
        </mxCell>
        <mxCell id="5GCPhKmFYs46bc2yyRkM-27" style="edgeStyle=orthogonalEdgeStyle;rounded=0;orthogonalLoop=1;jettySize=auto;html=1;" edge="1" parent="WIyWlLk6GJQsqaUBKTNV-1" source="LJI07mUxKh7Q_xS4_0Vs-97" target="nSjg71wjYDWN-kFWa40a-53">
          <mxGeometry relative="1" as="geometry">
            <Array as="points">
              <mxPoint x="548" y="360" />
              <mxPoint x="548" y="665" />
            </Array>
          </mxGeometry>
        </mxCell>
        <mxCell id="5GCPhKmFYs46bc2yyRkM-28" value="выход" style="edgeLabel;html=1;align=center;verticalAlign=middle;resizable=0;points=[];" vertex="1" connectable="0" parent="5GCPhKmFYs46bc2yyRkM-27">
          <mxGeometry x="-0.8165" relative="1" as="geometry">
            <mxPoint as="offset" />
          </mxGeometry>
        </mxCell>
        <mxCell id="LJI07mUxKh7Q_xS4_0Vs-97" value="i=0; na-1; 1" style="shape=hexagon;perimeter=hexagonPerimeter2;whiteSpace=wrap;html=1;fixedSize=1;rounded=0;labelBackgroundColor=none;" parent="WIyWlLk6GJQsqaUBKTNV-1" vertex="1">
          <mxGeometry x="330" y="340" width="120" height="40" as="geometry" />
        </mxCell>
        <mxCell id="LJI07mUxKh7Q_xS4_0Vs-104" style="edgeStyle=orthogonalEdgeStyle;rounded=0;orthogonalLoop=1;jettySize=auto;html=1;entryX=0.5;entryY=0;entryDx=0;entryDy=0;labelBackgroundColor=none;fontColor=default;" parent="WIyWlLk6GJQsqaUBKTNV-1" source="LJI07mUxKh7Q_xS4_0Vs-100" target="LJI07mUxKh7Q_xS4_0Vs-103" edge="1">
          <mxGeometry relative="1" as="geometry" />
        </mxCell>
        <mxCell id="5GCPhKmFYs46bc2yyRkM-23" value="вход" style="edgeLabel;html=1;align=center;verticalAlign=middle;resizable=0;points=[];" vertex="1" connectable="0" parent="LJI07mUxKh7Q_xS4_0Vs-104">
          <mxGeometry x="0.5696" relative="1" as="geometry">
            <mxPoint as="offset" />
          </mxGeometry>
        </mxCell>
        <mxCell id="LJI07mUxKh7Q_xS4_0Vs-118" style="edgeStyle=orthogonalEdgeStyle;rounded=0;orthogonalLoop=1;jettySize=auto;html=1;exitX=0;exitY=0.5;exitDx=0;exitDy=0;entryX=0;entryY=0.5;entryDx=0;entryDy=0;labelBackgroundColor=none;fontColor=default;" parent="WIyWlLk6GJQsqaUBKTNV-1" source="LJI07mUxKh7Q_xS4_0Vs-100" target="LJI07mUxKh7Q_xS4_0Vs-97" edge="1">
          <mxGeometry relative="1" as="geometry" />
        </mxCell>
        <mxCell id="5GCPhKmFYs46bc2yyRkM-21" value="выход" style="edgeLabel;html=1;align=center;verticalAlign=middle;resizable=0;points=[];" vertex="1" connectable="0" parent="LJI07mUxKh7Q_xS4_0Vs-118">
          <mxGeometry x="-0.0198" y="1" relative="1" as="geometry">
            <mxPoint as="offset" />
          </mxGeometry>
        </mxCell>
        <mxCell id="LJI07mUxKh7Q_xS4_0Vs-100" value="j=0; nb-1; 1" style="shape=hexagon;perimeter=hexagonPerimeter2;whiteSpace=wrap;html=1;fixedSize=1;rounded=0;labelBackgroundColor=none;" parent="WIyWlLk6GJQsqaUBKTNV-1" vertex="1">
          <mxGeometry x="330" y="400" width="120" height="40" as="geometry" />
        </mxCell>
        <mxCell id="LJI07mUxKh7Q_xS4_0Vs-107" style="edgeStyle=orthogonalEdgeStyle;rounded=0;orthogonalLoop=1;jettySize=auto;html=1;entryX=0.5;entryY=0;entryDx=0;entryDy=0;labelBackgroundColor=none;fontColor=default;" parent="WIyWlLk6GJQsqaUBKTNV-1" source="LJI07mUxKh7Q_xS4_0Vs-103" target="LJI07mUxKh7Q_xS4_0Vs-106" edge="1">
          <mxGeometry relative="1" as="geometry" />
        </mxCell>
        <mxCell id="5GCPhKmFYs46bc2yyRkM-25" value="да" style="edgeLabel;html=1;align=center;verticalAlign=middle;resizable=0;points=[];" vertex="1" connectable="0" parent="LJI07mUxKh7Q_xS4_0Vs-107">
          <mxGeometry x="0.6651" y="-1" relative="1" as="geometry">
            <mxPoint as="offset" />
          </mxGeometry>
        </mxCell>
        <mxCell id="LJI07mUxKh7Q_xS4_0Vs-117" style="edgeStyle=orthogonalEdgeStyle;rounded=0;orthogonalLoop=1;jettySize=auto;html=1;entryX=1;entryY=0.75;entryDx=0;entryDy=0;labelBackgroundColor=none;fontColor=default;" parent="WIyWlLk6GJQsqaUBKTNV-1" source="LJI07mUxKh7Q_xS4_0Vs-103" target="LJI07mUxKh7Q_xS4_0Vs-100" edge="1">
          <mxGeometry relative="1" as="geometry">
            <Array as="points">
              <mxPoint x="520" y="490" />
              <mxPoint x="520" y="429" />
            </Array>
          </mxGeometry>
        </mxCell>
        <mxCell id="5GCPhKmFYs46bc2yyRkM-24" value="нет" style="edgeLabel;html=1;align=center;verticalAlign=middle;resizable=0;points=[];" vertex="1" connectable="0" parent="LJI07mUxKh7Q_xS4_0Vs-117">
          <mxGeometry x="-0.5897" y="2" relative="1" as="geometry">
            <mxPoint as="offset" />
          </mxGeometry>
        </mxCell>
        <mxCell id="LJI07mUxKh7Q_xS4_0Vs-103" value="Второй эл-т пары&amp;nbsp;&lt;span style=&quot;background-color: initial;&quot;&gt;a[i] = первый эл-т пары b[i]&lt;/span&gt;" style="rhombus;whiteSpace=wrap;html=1;rounded=0;labelBackgroundColor=none;" parent="WIyWlLk6GJQsqaUBKTNV-1" vertex="1">
          <mxGeometry x="305" y="460" width="170" height="100" as="geometry" />
        </mxCell>
        <mxCell id="LJI07mUxKh7Q_xS4_0Vs-105" style="edgeStyle=orthogonalEdgeStyle;rounded=0;orthogonalLoop=1;jettySize=auto;html=1;exitX=0.5;exitY=1;exitDx=0;exitDy=0;labelBackgroundColor=none;fontColor=default;" parent="WIyWlLk6GJQsqaUBKTNV-1" source="LJI07mUxKh7Q_xS4_0Vs-103" target="LJI07mUxKh7Q_xS4_0Vs-103" edge="1">
          <mxGeometry relative="1" as="geometry" />
        </mxCell>
        <mxCell id="LJI07mUxKh7Q_xS4_0Vs-116" style="edgeStyle=orthogonalEdgeStyle;rounded=0;orthogonalLoop=1;jettySize=auto;html=1;entryX=1;entryY=0.25;entryDx=0;entryDy=0;labelBackgroundColor=none;fontColor=default;" parent="WIyWlLk6GJQsqaUBKTNV-1" source="LJI07mUxKh7Q_xS4_0Vs-106" target="LJI07mUxKh7Q_xS4_0Vs-100" edge="1">
          <mxGeometry relative="1" as="geometry">
            <mxPoint x="560" y="400" as="targetPoint" />
            <Array as="points">
              <mxPoint x="540" y="610" />
              <mxPoint x="540" y="411" />
            </Array>
          </mxGeometry>
        </mxCell>
        <mxCell id="LJI07mUxKh7Q_xS4_0Vs-106" value="добавить в график comp пару первый эл-т пары a[i] = второй эл-т пары b[i]" style="rounded=0;whiteSpace=wrap;html=1;labelBackgroundColor=none;" parent="WIyWlLk6GJQsqaUBKTNV-1" vertex="1">
          <mxGeometry x="260" y="580" width="260" height="40" as="geometry" />
        </mxCell>
        <mxCell id="LJI07mUxKh7Q_xS4_0Vs-127" style="edgeStyle=orthogonalEdgeStyle;rounded=0;orthogonalLoop=1;jettySize=auto;html=1;entryX=0.5;entryY=0;entryDx=0;entryDy=0;labelBackgroundColor=none;fontColor=default;" parent="WIyWlLk6GJQsqaUBKTNV-1" source="LJI07mUxKh7Q_xS4_0Vs-125" target="LJI07mUxKh7Q_xS4_0Vs-1" edge="1">
          <mxGeometry relative="1" as="geometry" />
        </mxCell>
        <mxCell id="5GCPhKmFYs46bc2yyRkM-32" value="вход" style="edgeLabel;html=1;align=center;verticalAlign=middle;resizable=0;points=[];" vertex="1" connectable="0" parent="LJI07mUxKh7Q_xS4_0Vs-127">
          <mxGeometry x="0.6484" relative="1" as="geometry">
            <mxPoint as="offset" />
          </mxGeometry>
        </mxCell>
        <mxCell id="nSjg71wjYDWN-kFWa40a-122" style="edgeStyle=orthogonalEdgeStyle;rounded=0;orthogonalLoop=1;jettySize=auto;html=1;entryX=1;entryY=0.5;entryDx=0;entryDy=0;" parent="WIyWlLk6GJQsqaUBKTNV-1" source="LJI07mUxKh7Q_xS4_0Vs-125" target="nSjg71wjYDWN-kFWa40a-121" edge="1">
          <mxGeometry relative="1" as="geometry">
            <Array as="points">
              <mxPoint x="240" y="125" />
              <mxPoint x="240" y="520" />
            </Array>
          </mxGeometry>
        </mxCell>
        <mxCell id="5GCPhKmFYs46bc2yyRkM-31" value="выход" style="edgeLabel;html=1;align=center;verticalAlign=middle;resizable=0;points=[];" vertex="1" connectable="0" parent="nSjg71wjYDWN-kFWa40a-122">
          <mxGeometry x="-0.868" y="-1" relative="1" as="geometry">
            <mxPoint as="offset" />
          </mxGeometry>
        </mxCell>
        <mxCell id="LJI07mUxKh7Q_xS4_0Vs-125" value="cin" style="rhombus;whiteSpace=wrap;html=1;rounded=0;labelBackgroundColor=none;" parent="WIyWlLk6GJQsqaUBKTNV-1" vertex="1">
          <mxGeometry x="105" y="100" width="50" height="50" as="geometry" />
        </mxCell>
        <mxCell id="LJI07mUxKh7Q_xS4_0Vs-141" style="edgeStyle=orthogonalEdgeStyle;rounded=0;orthogonalLoop=1;jettySize=auto;html=1;entryX=0.5;entryY=0;entryDx=0;entryDy=0;labelBackgroundColor=none;fontColor=default;" parent="WIyWlLk6GJQsqaUBKTNV-1" source="LJI07mUxKh7Q_xS4_0Vs-140" target="LJI07mUxKh7Q_xS4_0Vs-30" edge="1">
          <mxGeometry relative="1" as="geometry" />
        </mxCell>
        <mxCell id="LJI07mUxKh7Q_xS4_0Vs-140" value="compos" style="ellipse;whiteSpace=wrap;html=1;aspect=fixed;rounded=0;labelBackgroundColor=none;" parent="WIyWlLk6GJQsqaUBKTNV-1" vertex="1">
          <mxGeometry x="365" y="30" width="50" height="50" as="geometry" />
        </mxCell>
        <mxCell id="LJI07mUxKh7Q_xS4_0Vs-142" value="compos" style="ellipse;whiteSpace=wrap;html=1;aspect=fixed;rounded=0;labelBackgroundColor=none;" parent="WIyWlLk6GJQsqaUBKTNV-1" vertex="1">
          <mxGeometry x="175" y="290" width="50" height="50" as="geometry" />
        </mxCell>
        <mxCell id="LJI07mUxKh7Q_xS4_0Vs-144" value="invers" style="ellipse;whiteSpace=wrap;html=1;aspect=fixed;rounded=0;labelBackgroundColor=none;" parent="WIyWlLk6GJQsqaUBKTNV-1" vertex="1">
          <mxGeometry x="175" y="360" width="50" height="50" as="geometry" />
        </mxCell>
        <mxCell id="LJI07mUxKh7Q_xS4_0Vs-152" style="edgeStyle=orthogonalEdgeStyle;rounded=0;orthogonalLoop=1;jettySize=auto;html=1;entryX=0.5;entryY=0;entryDx=0;entryDy=0;labelBackgroundColor=none;fontColor=default;" parent="WIyWlLk6GJQsqaUBKTNV-1" source="LJI07mUxKh7Q_xS4_0Vs-149" target="LJI07mUxKh7Q_xS4_0Vs-150" edge="1">
          <mxGeometry relative="1" as="geometry" />
        </mxCell>
        <mxCell id="LJI07mUxKh7Q_xS4_0Vs-149" value="invers" style="ellipse;whiteSpace=wrap;html=1;aspect=fixed;rounded=0;labelBackgroundColor=none;" parent="WIyWlLk6GJQsqaUBKTNV-1" vertex="1">
          <mxGeometry x="632" y="30" width="50" height="50" as="geometry" />
        </mxCell>
        <mxCell id="5GCPhKmFYs46bc2yyRkM-12" style="edgeStyle=orthogonalEdgeStyle;rounded=0;orthogonalLoop=1;jettySize=auto;html=1;entryX=0.5;entryY=0;entryDx=0;entryDy=0;" edge="1" parent="WIyWlLk6GJQsqaUBKTNV-1" source="LJI07mUxKh7Q_xS4_0Vs-150" target="5GCPhKmFYs46bc2yyRkM-11">
          <mxGeometry relative="1" as="geometry" />
        </mxCell>
        <mxCell id="LJI07mUxKh7Q_xS4_0Vs-150" value="Ввод na" style="shape=parallelogram;perimeter=parallelogramPerimeter;whiteSpace=wrap;html=1;fixedSize=1;rounded=0;labelBackgroundColor=none;" parent="WIyWlLk6GJQsqaUBKTNV-1" vertex="1">
          <mxGeometry x="597" y="100" width="120" height="40" as="geometry" />
        </mxCell>
        <mxCell id="nSjg71wjYDWN-kFWa40a-53" value="1" style="ellipse;whiteSpace=wrap;html=1;aspect=fixed;rounded=0;labelBackgroundColor=none;" parent="WIyWlLk6GJQsqaUBKTNV-1" vertex="1">
          <mxGeometry x="365" y="640" width="50" height="50" as="geometry" />
        </mxCell>
        <mxCell id="nSjg71wjYDWN-kFWa40a-108" style="edgeStyle=orthogonalEdgeStyle;rounded=0;orthogonalLoop=1;jettySize=auto;html=1;" parent="WIyWlLk6GJQsqaUBKTNV-1" source="nSjg71wjYDWN-kFWa40a-106" edge="1">
          <mxGeometry relative="1" as="geometry">
            <mxPoint x="70" y="455" as="targetPoint" />
            <Array as="points">
              <mxPoint x="195" y="490" />
              <mxPoint x="71" y="490" />
              <mxPoint x="71" y="455" />
            </Array>
          </mxGeometry>
        </mxCell>
        <mxCell id="nSjg71wjYDWN-kFWa40a-106" value="1" style="ellipse;whiteSpace=wrap;html=1;aspect=fixed;rounded=0;labelBackgroundColor=none;" parent="WIyWlLk6GJQsqaUBKTNV-1" vertex="1">
          <mxGeometry x="170" y="430" width="50" height="50" as="geometry" />
        </mxCell>
        <mxCell id="nSjg71wjYDWN-kFWa40a-112" style="edgeStyle=orthogonalEdgeStyle;rounded=0;orthogonalLoop=1;jettySize=auto;html=1;entryX=0.5;entryY=0;entryDx=0;entryDy=0;" parent="WIyWlLk6GJQsqaUBKTNV-1" source="nSjg71wjYDWN-kFWa40a-109" target="nSjg71wjYDWN-kFWa40a-111" edge="1">
          <mxGeometry relative="1" as="geometry" />
        </mxCell>
        <mxCell id="5GCPhKmFYs46bc2yyRkM-30" value="вход" style="edgeLabel;html=1;align=center;verticalAlign=middle;resizable=0;points=[];" vertex="1" connectable="0" parent="nSjg71wjYDWN-kFWa40a-112">
          <mxGeometry x="0.0337" y="1" relative="1" as="geometry">
            <mxPoint as="offset" />
          </mxGeometry>
        </mxCell>
        <mxCell id="nSjg71wjYDWN-kFWa40a-118" style="edgeStyle=orthogonalEdgeStyle;rounded=0;orthogonalLoop=1;jettySize=auto;html=1;entryX=1;entryY=0.5;entryDx=0;entryDy=0;" parent="WIyWlLk6GJQsqaUBKTNV-1" source="nSjg71wjYDWN-kFWa40a-109" target="nSjg71wjYDWN-kFWa40a-116" edge="1">
          <mxGeometry relative="1" as="geometry">
            <Array as="points">
              <mxPoint x="753" y="240" />
              <mxPoint x="753" y="365" />
            </Array>
          </mxGeometry>
        </mxCell>
        <mxCell id="5GCPhKmFYs46bc2yyRkM-16" value="выход" style="edgeLabel;html=1;align=center;verticalAlign=middle;resizable=0;points=[];" vertex="1" connectable="0" parent="nSjg71wjYDWN-kFWa40a-118">
          <mxGeometry x="-0.2877" y="-2" relative="1" as="geometry">
            <mxPoint as="offset" />
          </mxGeometry>
        </mxCell>
        <mxCell id="nSjg71wjYDWN-kFWa40a-109" value="i=0; na-1; 1" style="shape=hexagon;perimeter=hexagonPerimeter2;whiteSpace=wrap;html=1;fixedSize=1;rounded=0;labelBackgroundColor=none;" parent="WIyWlLk6GJQsqaUBKTNV-1" vertex="1">
          <mxGeometry x="598" y="220" width="120" height="40" as="geometry" />
        </mxCell>
        <mxCell id="nSjg71wjYDWN-kFWa40a-114" style="edgeStyle=orthogonalEdgeStyle;rounded=0;orthogonalLoop=1;jettySize=auto;html=1;entryX=0;entryY=0.5;entryDx=0;entryDy=0;" parent="WIyWlLk6GJQsqaUBKTNV-1" source="nSjg71wjYDWN-kFWa40a-111" target="nSjg71wjYDWN-kFWa40a-109" edge="1">
          <mxGeometry relative="1" as="geometry">
            <Array as="points">
              <mxPoint x="561" y="300" />
              <mxPoint x="561" y="240" />
            </Array>
          </mxGeometry>
        </mxCell>
        <mxCell id="nSjg71wjYDWN-kFWa40a-117" style="edgeStyle=orthogonalEdgeStyle;rounded=0;orthogonalLoop=1;jettySize=auto;html=1;entryX=0.5;entryY=0;entryDx=0;entryDy=0;" parent="WIyWlLk6GJQsqaUBKTNV-1" source="nSjg71wjYDWN-kFWa40a-111" target="nSjg71wjYDWN-kFWa40a-116" edge="1">
          <mxGeometry relative="1" as="geometry" />
        </mxCell>
        <mxCell id="nSjg71wjYDWN-kFWa40a-111" value="swap(a[i].first, a[i].second);" style="rounded=0;whiteSpace=wrap;html=1;labelBackgroundColor=none;" parent="WIyWlLk6GJQsqaUBKTNV-1" vertex="1">
          <mxGeometry x="580.5" y="280" width="155" height="40" as="geometry" />
        </mxCell>
        <mxCell id="nSjg71wjYDWN-kFWa40a-116" value="1" style="ellipse;whiteSpace=wrap;html=1;aspect=fixed;rounded=0;labelBackgroundColor=none;" parent="WIyWlLk6GJQsqaUBKTNV-1" vertex="1">
          <mxGeometry x="633" y="340" width="50" height="50" as="geometry" />
        </mxCell>
        <mxCell id="nSjg71wjYDWN-kFWa40a-120" style="edgeStyle=orthogonalEdgeStyle;rounded=0;orthogonalLoop=1;jettySize=auto;html=1;entryX=0.5;entryY=0;entryDx=0;entryDy=0;" parent="WIyWlLk6GJQsqaUBKTNV-1" source="nSjg71wjYDWN-kFWa40a-119" target="LJI07mUxKh7Q_xS4_0Vs-125" edge="1">
          <mxGeometry relative="1" as="geometry" />
        </mxCell>
        <mxCell id="nSjg71wjYDWN-kFWa40a-119" value="Начало" style="rounded=1;whiteSpace=wrap;html=1;arcSize=50;" parent="WIyWlLk6GJQsqaUBKTNV-1" vertex="1">
          <mxGeometry x="70" y="40" width="120" height="40" as="geometry" />
        </mxCell>
        <mxCell id="nSjg71wjYDWN-kFWa40a-121" value="Конец" style="rounded=1;whiteSpace=wrap;html=1;arcSize=50;" parent="WIyWlLk6GJQsqaUBKTNV-1" vertex="1">
          <mxGeometry x="70" y="500" width="120" height="40" as="geometry" />
        </mxCell>
        <mxCell id="5GCPhKmFYs46bc2yyRkM-1" style="edgeStyle=orthogonalEdgeStyle;rounded=0;orthogonalLoop=1;jettySize=auto;html=1;strokeColor=default;" edge="1" parent="WIyWlLk6GJQsqaUBKTNV-1" source="5GCPhKmFYs46bc2yyRkM-0" target="LJI07mUxKh7Q_xS4_0Vs-91">
          <mxGeometry relative="1" as="geometry" />
        </mxCell>
        <mxCell id="5GCPhKmFYs46bc2yyRkM-0" value="enter_gra(*gra, n)" style="rounded=1;whiteSpace=wrap;html=1;arcSize=50;strokeColor=default;" vertex="1" parent="WIyWlLk6GJQsqaUBKTNV-1">
          <mxGeometry x="600" y="410" width="120" height="40" as="geometry" />
        </mxCell>
        <mxCell id="5GCPhKmFYs46bc2yyRkM-2" value="return" style="rounded=1;whiteSpace=wrap;html=1;arcSize=50;strokeColor=default;" vertex="1" parent="WIyWlLk6GJQsqaUBKTNV-1">
          <mxGeometry x="600" y="710" width="120" height="40" as="geometry" />
        </mxCell>
        <mxCell id="5GCPhKmFYs46bc2yyRkM-9" style="edgeStyle=orthogonalEdgeStyle;rounded=0;orthogonalLoop=1;jettySize=auto;html=1;" edge="1" parent="WIyWlLk6GJQsqaUBKTNV-1" source="5GCPhKmFYs46bc2yyRkM-4" target="5GCPhKmFYs46bc2yyRkM-7">
          <mxGeometry relative="1" as="geometry" />
        </mxCell>
        <mxCell id="5GCPhKmFYs46bc2yyRkM-4" value="enter_gra(a, na)" style="shape=process;whiteSpace=wrap;html=1;backgroundOutline=1;" vertex="1" parent="WIyWlLk6GJQsqaUBKTNV-1">
          <mxGeometry x="330" y="160" width="120" height="40" as="geometry" />
        </mxCell>
        <mxCell id="5GCPhKmFYs46bc2yyRkM-6" style="edgeStyle=orthogonalEdgeStyle;rounded=0;orthogonalLoop=1;jettySize=auto;html=1;entryX=0.5;entryY=0;entryDx=0;entryDy=0;" edge="1" source="5GCPhKmFYs46bc2yyRkM-7" target="5GCPhKmFYs46bc2yyRkM-8" parent="WIyWlLk6GJQsqaUBKTNV-1">
          <mxGeometry relative="1" as="geometry" />
        </mxCell>
        <mxCell id="5GCPhKmFYs46bc2yyRkM-7" value="Ввод nb" style="shape=parallelogram;perimeter=parallelogramPerimeter;whiteSpace=wrap;html=1;fixedSize=1;rounded=0;labelBackgroundColor=none;" vertex="1" parent="WIyWlLk6GJQsqaUBKTNV-1">
          <mxGeometry x="330" y="220" width="120" height="40" as="geometry" />
        </mxCell>
        <mxCell id="5GCPhKmFYs46bc2yyRkM-10" style="edgeStyle=orthogonalEdgeStyle;rounded=0;orthogonalLoop=1;jettySize=auto;html=1;" edge="1" parent="WIyWlLk6GJQsqaUBKTNV-1" source="5GCPhKmFYs46bc2yyRkM-8" target="LJI07mUxKh7Q_xS4_0Vs-97">
          <mxGeometry relative="1" as="geometry" />
        </mxCell>
        <mxCell id="5GCPhKmFYs46bc2yyRkM-8" value="enter_gra(b, nb)" style="shape=process;whiteSpace=wrap;html=1;backgroundOutline=1;" vertex="1" parent="WIyWlLk6GJQsqaUBKTNV-1">
          <mxGeometry x="330" y="280" width="120" height="40" as="geometry" />
        </mxCell>
        <mxCell id="5GCPhKmFYs46bc2yyRkM-14" style="edgeStyle=orthogonalEdgeStyle;rounded=0;orthogonalLoop=1;jettySize=auto;html=1;entryX=0.5;entryY=0;entryDx=0;entryDy=0;" edge="1" parent="WIyWlLk6GJQsqaUBKTNV-1" source="5GCPhKmFYs46bc2yyRkM-11" target="nSjg71wjYDWN-kFWa40a-109">
          <mxGeometry relative="1" as="geometry">
            <Array as="points">
              <mxPoint x="660" y="200" />
              <mxPoint x="660" y="200" />
            </Array>
          </mxGeometry>
        </mxCell>
        <mxCell id="5GCPhKmFYs46bc2yyRkM-11" value="enter_gra(a, na)" style="shape=process;whiteSpace=wrap;html=1;backgroundOutline=1;" vertex="1" parent="WIyWlLk6GJQsqaUBKTNV-1">
          <mxGeometry x="597" y="160" width="120" height="40" as="geometry" />
        </mxCell>
      </root>
    </mxGraphModel>
  </diagram>
</mxfile>
